<svg version="1.1" id="Layer_1" xmlns="http://www.w3.org/2000/svg" xmlns:xlink="http://www.w3.org/1999/xlink" x="0px" y="0px"
	 width="100%" viewBox="0 0 190 162" enable-background="new 0 0 190 162" xml:space="preserve">
<path fill="#FEFEFE" opacity="1.000000" stroke="none" 
	d="
M135.000000,163.000000 
	C90.000000,163.000000 45.500004,163.000000 1.000006,163.000000 
	C1.000004,109.000008 1.000004,55.000011 1.000002,1.000013 
	C64.333321,1.000009 127.666649,1.000009 190.999969,1.000004 
	C190.999985,54.999985 190.999985,108.999969 191.000000,162.999969 
	C172.500000,163.000000 154.000000,163.000000 135.000000,163.000000 
M178.928314,63.951595 
	C178.571182,62.865704 178.214050,61.779808 178.273849,60.175316 
	C185.096146,56.374023 187.027740,49.714344 189.124146,43.100273 
	C183.811859,44.850220 179.003555,46.434147 174.352158,47.335270 
	C175.357101,45.584747 176.362030,43.834225 177.366974,42.083702 
	C160.338562,49.909973 143.077896,54.199066 125.384903,57.127922 
	C123.772598,57.394817 121.325882,58.275703 120.948685,59.423992 
	C118.640541,66.450645 113.062859,69.723717 106.258865,72.188477 
	C105.653137,69.707321 105.047417,67.226173 104.399513,64.572220 
	C106.274620,64.269333 107.450600,64.079376 108.765251,63.867023 
	C106.184113,59.364956 95.193871,57.445179 91.975334,60.703274 
	C91.207512,61.480530 90.871300,62.718906 90.439659,63.786858 
	C89.257690,66.711243 88.130623,69.657822 86.348579,72.188835 
	C80.657181,70.352638 75.393173,67.763168 73.269928,61.722088 
	C72.154007,58.547039 70.237701,57.570126 67.216812,56.968002 
	C58.804672,55.291290 50.341213,53.681042 42.122612,51.276802 
	C33.497715,48.753708 25.133335,45.340057 15.847445,42.027481 
	C16.645853,44.279690 17.273668,46.050667 17.153202,47.978302 
	C12.873014,46.367336 8.592827,44.756367 4.140622,43.080654 
	C5.957402,55.921421 14.431383,61.752934 26.456181,64.055939 
	C26.152555,64.696594 25.848930,65.337250 25.545305,65.977905 
	C21.203024,65.655602 16.860743,65.333298 12.154258,64.983955 
	C16.679216,73.592690 22.271093,79.384956 32.659698,77.999298 
	C36.487988,77.488678 40.441502,77.916901 44.337902,77.916901 
	C44.350822,78.374809 44.363743,78.832718 44.376667,79.290627 
	C37.616776,80.147781 30.856888,81.004944 23.812717,81.898155 
	C32.190670,91.570702 42.502483,92.485062 53.909439,89.480072 
	C53.872482,89.958115 53.835526,90.436165 53.798569,90.914207 
	C51.024342,92.444382 48.250114,93.974548 44.755733,95.901932 
	C51.828911,99.749260 58.548416,100.097000 66.211334,99.102783 
	C66.453171,99.286140 66.695007,99.469490 66.603867,100.282356 
	C65.785934,101.155128 64.968002,102.027901 64.150070,102.900673 
	C64.305450,103.353264 64.460831,103.805862 64.616211,104.258461 
	C69.038414,103.660973 73.460617,103.063484 77.721977,102.487724 
	C78.713127,103.277031 80.098969,104.380646 81.679207,105.639069 
	C80.433357,106.973541 79.203094,108.291321 77.358253,110.267395 
	C80.095161,111.444481 82.551216,112.500778 85.533119,113.783226 
	C83.546509,117.563728 81.569832,121.283310 79.643883,125.028984 
	C79.295494,125.706535 79.155327,126.491142 78.919029,127.226326 
	C79.866241,127.494148 80.823151,128.002472 81.758049,127.964790 
	C82.772423,127.923904 83.766304,127.374710 85.261337,126.886406 
	C85.261337,129.894516 85.261337,132.434509 85.261337,134.974487 
	C85.681717,135.245758 86.102097,135.517029 86.522476,135.788300 
	C88.563889,133.749863 90.605301,131.711411 92.210861,130.108185 
	C93.208023,133.343414 94.420303,137.276611 95.632591,141.209808 
	C96.242271,141.195908 96.851952,141.182022 97.461632,141.168121 
	C98.649956,137.354446 99.838280,133.540756 101.046692,129.662598 
	C103.043243,131.545410 105.047218,133.435226 107.948364,136.171112 
	C107.948364,132.251648 107.948364,129.720734 107.948364,127.772743 
	C110.526497,127.532700 112.628464,127.336998 114.585640,127.154770 
	C111.825058,122.441437 109.276756,118.090546 106.896217,114.026077 
	C110.200462,112.384819 112.681778,111.152321 114.981499,110.010017 
	C113.492035,108.110123 112.230194,106.500557 110.968346,104.890999 
	C111.217636,104.348602 111.466934,103.806213 111.716225,103.263817 
	C114.628815,103.462753 117.538788,103.734741 120.454765,103.839462 
	C123.202957,103.938148 125.957481,103.860634 129.743591,103.860634 
	C127.940186,101.800362 127.005661,100.732742 126.791939,99.098389 
	C127.015564,98.890030 127.239182,98.681679 128.076385,98.696564 
	C134.588455,99.513069 141.089493,100.259331 147.366684,96.153130 
	C144.357910,94.134651 141.945526,92.516258 139.533142,90.897865 
	C139.772064,90.351929 140.011002,89.805984 140.249924,89.260048 
	C142.495468,89.867157 144.741028,90.474266 147.071289,91.629974 
	C147.730927,91.552055 148.390579,91.474136 149.917999,91.371658 
	C157.723801,91.342964 163.652267,87.470428 169.497696,81.979782 
	C161.737106,81.035233 154.571152,80.163055 147.405212,79.290878 
	C147.454712,78.830505 147.504196,78.370125 147.553696,77.909752 
	C152.677414,77.909752 157.824875,77.595001 162.919556,77.979607 
	C171.732239,78.644890 176.107788,73.081848 179.910049,66.559006 
	C180.115768,66.206093 179.351364,65.287689 178.928314,63.951595 
z"/>
<path fill="#252122" opacity="1.000000" stroke="none" 
	d="
M146.986572,91.081383 
	C144.741028,90.474266 142.495468,89.867157 140.249924,89.260048 
	C140.011002,89.805984 139.772064,90.351929 139.533142,90.897865 
	C141.945526,92.516258 144.357910,94.134651 147.366684,96.153130 
	C141.089493,100.259331 134.588455,99.513069 127.507660,98.364937 
	C126.067383,98.033310 125.195847,98.033310 122.932739,98.033310 
	C124.780296,98.993942 125.425720,99.329529 126.071144,99.665115 
	C127.005661,100.732742 127.940186,101.800362 129.743591,103.860634 
	C125.957481,103.860634 123.202957,103.938148 120.454765,103.839462 
	C117.538788,103.734741 114.628815,103.462753 111.716225,103.263817 
	C111.466934,103.806213 111.217636,104.348602 110.968346,104.890999 
	C112.230194,106.500557 113.492035,108.110123 114.981499,110.010017 
	C112.681778,111.152321 110.200462,112.384819 106.896217,114.026077 
	C109.276756,118.090546 111.825058,122.441437 114.585640,127.154770 
	C112.628464,127.336998 110.526497,127.532700 107.948364,127.772743 
	C107.948364,129.720734 107.948364,132.251648 107.948364,136.171112 
	C105.047218,133.435226 103.043243,131.545410 101.046692,129.662598 
	C99.838280,133.540756 98.649956,137.354446 97.461632,141.168121 
	C96.851952,141.182022 96.242271,141.195908 95.632591,141.209808 
	C94.420303,137.276611 93.208023,133.343414 92.210861,130.108185 
	C90.605301,131.711411 88.563889,133.749863 86.522476,135.788300 
	C86.102097,135.517029 85.681717,135.245758 85.261337,134.974487 
	C85.261337,132.434509 85.261337,129.894516 85.261337,126.886406 
	C83.766304,127.374710 82.772423,127.923904 81.758049,127.964790 
	C80.823151,128.002472 79.866241,127.494148 78.919022,127.226326 
	C79.155327,126.491142 79.295494,125.706535 79.643883,125.028984 
	C81.569832,121.283310 83.546509,117.563728 85.533119,113.783226 
	C82.551216,112.500778 80.095161,111.444481 77.358253,110.267395 
	C79.203094,108.291321 80.433357,106.973541 81.679207,105.639069 
	C80.098969,104.380646 78.713127,103.277031 77.721977,102.487724 
	C73.460617,103.063484 69.038414,103.660973 64.616211,104.258461 
	C64.460831,103.805862 64.305450,103.353264 64.150070,102.900673 
	C64.968002,102.027901 65.785934,101.155128 67.041702,99.827316 
	C67.514977,98.965141 67.550415,98.557999 67.585854,98.150864 
	C66.903244,98.263893 66.220634,98.376923 65.538025,98.489952 
	C58.548416,100.097000 51.828911,99.749260 44.755733,95.901932 
	C48.250114,93.974548 51.024342,92.444382 53.798569,90.914207 
	C53.835526,90.436165 53.872482,89.958115 53.909439,89.480072 
	C42.502483,92.485062 32.190670,91.570702 23.812717,81.898155 
	C30.856888,81.004944 37.616776,80.147781 44.376667,79.290627 
	C44.363743,78.832718 44.350822,78.374809 44.337902,77.916901 
	C40.441502,77.916901 36.487988,77.488678 32.659698,77.999298 
	C22.271093,79.384956 16.679216,73.592690 12.154258,64.983955 
	C16.860743,65.333298 21.203024,65.655602 25.545305,65.977905 
	C25.848930,65.337250 26.152555,64.696594 26.456181,64.055939 
	C14.431383,61.752934 5.957402,55.921421 4.140622,43.080654 
	C8.592827,44.756367 12.873014,46.367336 17.860628,48.079147 
	C25.888113,50.750725 33.092636,53.749039 40.561977,55.767292 
	C47.497353,57.641262 54.707260,58.516251 61.812119,59.739128 
	C65.672699,60.403606 68.947067,61.157986 70.090599,65.973381 
	C70.717926,68.615013 73.068283,71.045448 75.106117,73.113503 
	C79.540794,77.613937 84.297485,77.272072 86.981819,72.595619 
	C88.130623,69.657822 89.257690,66.711243 90.439659,63.786858 
	C90.871300,62.718906 91.207512,61.480530 91.975334,60.703274 
	C95.193871,57.445179 106.184113,59.364956 108.765251,63.867023 
	C107.450600,64.079376 106.274620,64.269333 104.399513,64.572220 
	C105.047417,67.226173 105.653137,69.707321 106.563263,72.736061 
	C106.837112,77.384140 109.296143,77.043228 112.224213,76.378281 
	C112.935478,76.114563 113.467331,75.658195 114.236801,75.118439 
	C114.641647,75.020485 114.808891,75.005905 115.135834,75.214455 
	C115.862610,75.036011 116.429680,74.634438 117.291260,74.041687 
	C119.442879,71.172935 122.142654,68.732628 122.977608,65.767235 
	C124.599373,60.007423 128.832291,59.607067 133.406509,59.188374 
	C134.475769,59.090504 135.578125,59.136436 136.610489,58.888344 
	C143.205017,57.303570 149.840240,55.849262 156.352112,53.970806 
	C162.371323,52.234463 168.253006,50.021259 174.195251,48.018066 
	C179.003555,46.434147 183.811859,44.850220 189.124146,43.100273 
	C187.027740,49.714344 185.096146,56.374023 177.673553,60.505501 
	C170.035461,62.431313 162.997665,64.026939 155.959885,65.622559 
	C156.050797,66.188637 156.141708,66.754715 156.232620,67.320786 
	C163.834610,66.424698 171.436584,65.528610 179.038574,64.632523 
	C179.351364,65.287689 180.115768,66.206093 179.910049,66.559006 
	C176.107788,73.081848 171.732239,78.644890 162.919556,77.979607 
	C157.824875,77.595001 152.677414,77.909752 147.553696,77.909752 
	C147.504196,78.370125 147.454712,78.830505 147.405212,79.290878 
	C154.571152,80.163055 161.737106,81.035233 169.497696,81.979782 
	C163.652267,87.470428 157.723801,91.342964 149.159698,91.234222 
	C147.929779,91.091660 147.458176,91.086517 146.986572,91.081383 
M31.653728,64.963669 
	C30.178946,64.729622 28.704163,64.495575 27.229378,64.261536 
	C27.172169,64.750679 27.114962,65.239815 27.057753,65.728958 
	C30.343142,65.728958 33.628532,65.728958 36.913921,65.728958 
	C36.919685,65.534760 36.925449,65.340553 36.931213,65.146355 
	C35.454407,65.045296 33.977600,64.944237 31.653728,64.963669 
M139.443253,88.784500 
	C138.137589,88.514633 136.831940,88.244766 135.526276,87.974899 
	C135.436783,88.437332 135.347290,88.899757 135.257797,89.362190 
	C136.739731,89.483643 138.221680,89.605095 139.443253,88.784500 
M140.797668,76.391159 
	C140.793457,76.785583 140.789246,77.180008 140.785049,77.574432 
	C140.948776,77.575943 141.254791,77.588440 141.255646,77.577377 
	C141.285934,77.184914 141.287628,76.790230 140.797668,76.391159 
z"/>
<path fill="#E9521B" opacity="1.000000" stroke="none" 
	d="
M86.665199,72.392227 
	C84.297485,77.272072 79.540794,77.613937 75.106117,73.113503 
	C73.068283,71.045448 70.717926,68.615013 70.090599,65.973381 
	C68.947067,61.157986 65.672699,60.403606 61.812119,59.739128 
	C54.707260,58.516251 47.497353,57.641262 40.561977,55.767292 
	C33.092636,53.749039 25.888113,50.750725 18.234768,48.000820 
	C17.273668,46.050667 16.645853,44.279690 15.847445,42.027481 
	C25.133335,45.340057 33.497715,48.753708 42.122612,51.276802 
	C50.341213,53.681042 58.804672,55.291290 67.216812,56.968002 
	C70.237701,57.570126 72.154007,58.547039 73.269928,61.722088 
	C75.393173,67.763168 80.657181,70.352638 86.665199,72.392227 
z"/>
<path fill="#E9511A" opacity="1.000000" stroke="none" 
	d="
M174.273712,47.676666 
	C168.253006,50.021259 162.371323,52.234463 156.352112,53.970806 
	C149.840240,55.849262 143.205017,57.303570 136.610489,58.888344 
	C135.578125,59.136436 134.475769,59.090504 133.406509,59.188374 
	C128.832291,59.607067 124.599373,60.007423 122.977608,65.767235 
	C122.142654,68.732628 119.442879,71.172935 116.992599,73.994652 
	C115.925011,74.422966 115.450577,74.707146 114.976143,74.991318 
	C114.808891,75.005905 114.641647,75.020485 113.956833,75.143112 
	C112.974426,75.562660 112.509605,75.874146 112.044792,76.185631 
	C109.296143,77.043228 106.837112,77.384140 106.932343,72.943588 
	C113.062859,69.723717 118.640541,66.450645 120.948685,59.423992 
	C121.325882,58.275703 123.772598,57.394817 125.384903,57.127922 
	C143.077896,54.199066 160.338562,49.909973 177.366974,42.083702 
	C176.362030,43.834225 175.357101,45.584747 174.273712,47.676666 
z"/>
<path fill="#EAE7E6" opacity="1.000000" stroke="none" 
	d="
M178.983444,64.292053 
	C171.436584,65.528610 163.834610,66.424698 156.232620,67.320786 
	C156.141708,66.754715 156.050797,66.188637 155.959885,65.622559 
	C162.997665,64.026939 170.035461,62.431313 177.465088,60.764801 
	C178.214050,61.779808 178.571182,62.865704 178.983444,64.292053 
z"/>
<path fill="#E3E3E3" opacity="1.000000" stroke="none" 
	d="
M147.028931,91.355682 
	C147.458176,91.086517 147.929779,91.091660 148.725800,91.246506 
	C148.390579,91.474136 147.730927,91.552055 147.028931,91.355682 
z"/>
<path fill="#F2F2F2" opacity="1.000000" stroke="none" 
	d="
M32.077263,64.903427 
	C33.977600,64.944237 35.454407,65.045296 36.931213,65.146355 
	C36.925449,65.340553 36.919685,65.534760 36.913921,65.728958 
	C33.628532,65.728958 30.343142,65.728958 27.057753,65.728958 
	C27.114962,65.239815 27.172169,64.750679 27.229378,64.261536 
	C28.704163,64.495575 30.178946,64.729622 32.077263,64.903427 
z"/>
<path fill="#E3E3E3" opacity="1.000000" stroke="none" 
	d="
M139.573425,89.255524 
	C138.221680,89.605095 136.739731,89.483643 135.257797,89.362190 
	C135.347290,88.899757 135.436783,88.437332 135.526276,87.974899 
	C136.831940,88.244766 138.137589,88.514633 139.573425,89.255524 
z"/>
<path fill="#262223" opacity="1.000000" stroke="none" 
	d="
M115.135834,75.214455 
	C115.450577,74.707146 115.925011,74.422966 116.698097,74.185822 
	C116.429680,74.634438 115.862610,75.036011 115.135834,75.214455 
z"/>
<path fill="#262223" opacity="1.000000" stroke="none" 
	d="
M141.045502,76.393509 
	C141.287628,76.790230 141.285934,77.184914 141.255646,77.577377 
	C141.254791,77.588440 140.948776,77.575943 140.785049,77.574432 
	C140.789246,77.180008 140.793457,76.785583 141.045502,76.393509 
z"/>
<path fill="#262223" opacity="1.000000" stroke="none" 
	d="
M112.224213,76.378281 
	C112.509605,75.874146 112.974426,75.562660 113.719215,75.226501 
	C113.467331,75.658195 112.935478,76.114563 112.224213,76.378281 
z"/>
<path fill="#FEFEFE" opacity="1.000000" stroke="none" 
	d="
M126.431541,99.381752 
	C125.425720,99.329529 124.780296,98.993942 122.932739,98.033310 
	C125.195847,98.033310 126.067383,98.033310 127.200867,98.253326 
	C127.239182,98.681679 127.015564,98.890030 126.431541,99.381752 
z"/>
<path fill="#FEFEFE" opacity="1.000000" stroke="none" 
	d="
M65.874680,98.796371 
	C66.220634,98.376923 66.903244,98.263893 67.585854,98.150864 
	C67.550415,98.557999 67.514977,98.965141 67.208183,99.512558 
	C66.695007,99.469490 66.453171,99.286140 65.874680,98.796371 
z"/>
</svg>